<svg xmlns="http://www.w3.org/2000/svg" viewBox="0 0 1600 900" fill="none">
  <rect width="1600" height="900" fill="#0B1220"/>
  <rect width="1600" height="900" fill="url(#bg)"/>
  <circle cx="1280" cy="180" r="280" fill="#3258A4" fill-opacity="0.22"/>
  <circle cx="220" cy="720" r="220" fill="#F0B80D" fill-opacity="0.14"/>
  <rect x="120" y="140" width="520" height="620" rx="28" fill="#141C2E" stroke="#3258A4" stroke-opacity="0.35" stroke-width="2"/>
  <rect x="180" y="220" width="180" height="24" rx="12" fill="#3258A4"/>
  <rect x="180" y="280" width="400" height="12" rx="6" fill="#F0B80D" fill-opacity="0.85"/>
  <rect x="180" y="310" width="340" height="12" rx="6" fill="#ffffff" fill-opacity="0.18"/>
  <rect x="180" y="380" width="400" height="140" rx="20" fill="#1A2540" stroke="#F0B80D" stroke-opacity="0.45" stroke-width="2"/>
  <circle cx="260" cy="450" r="42" fill="#3258A4"/>
  <path d="M330 420h220M330 450h180M330 480h140" stroke="#ffffff" stroke-opacity="0.35" stroke-width="10" stroke-linecap="round"/>
  <rect x="720" y="200" width="760" height="480" rx="32" fill="#111827" stroke="#ffffff" stroke-opacity="0.08" stroke-width="2"/>
  <rect x="780" y="280" width="220" height="220" rx="24" fill="#3258A4"/>
  <rect x="1040" y="280" width="220" height="220" rx="24" fill="#F0B80D"/>
  <rect x="1300" y="280" width="120" height="220" rx="24" fill="#ffffff" fill-opacity="0.12"/>
  <rect x="780" y="540" width="640" height="20" rx="10" fill="#ffffff" fill-opacity="0.12"/>
  <rect x="780" y="580" width="520" height="20" rx="10" fill="#ffffff" fill-opacity="0.08"/>
  <defs>
    <linearGradient id="bg" x1="0" y1="0" x2="1600" y2="900" gradientUnits="userSpaceOnUse">
      <stop stop-color="#10182B"/>
      <stop offset="1" stop-color="#040508"/>
    </linearGradient>
  </defs>
</svg>
