<svg xmlns="http://www.w3.org/2000/svg" viewBox="0 0 1600 900" fill="none">
  <rect width="1600" height="900" fill="#EEEDEB"/>
  <rect x="980" y="-40" width="420" height="420" rx="210" fill="#3258A4" fill-opacity="0.12"/>
  <rect x="220" y="180" width="520" height="300" rx="16" fill="#ffffff" stroke="#E8E4DE" stroke-width="2"/>
  <rect x="260" y="240" width="120" height="120" rx="60" fill="#3258A4"/>
  <rect x="420" y="250" width="260" height="18" rx="9" fill="#040508" fill-opacity="0.85"/>
  <rect x="420" y="290" width="200" height="12" rx="6" fill="#040508" fill-opacity="0.25"/>
  <rect x="360" y="360" width="320" height="4" rx="2" fill="#F0B80D"/>
  <rect x="520" y="260" width="380" height="240" rx="12" fill="#ffffff" stroke="#E8E4DE" stroke-width="2" transform="rotate(8 520 260)"/>
  <rect x="700" y="320" width="520" height="320" rx="20" fill="#040508"/>
  <rect x="760" y="390" width="180" height="180" rx="90" fill="#F0B80D"/>
  <rect x="980" y="410" width="180" height="16" rx="8" fill="#ffffff" fill-opacity="0.85"/>
  <rect x="980" y="450" width="140" height="12" rx="6" fill="#ffffff" fill-opacity="0.35"/>
  <rect x="180" y="560" width="240" height="140" rx="70" fill="#3258A4" fill-opacity="0.9"/>
</svg>
