<svg xmlns="http://www.w3.org/2000/svg" viewBox="0 0 1600 900" fill="none">
  <rect width="1600" height="900" fill="#F8F7F4"/>
  <circle cx="260" cy="450" r="300" fill="#3258A4" fill-opacity="0.1"/>
  <circle cx="1320" cy="220" r="180" fill="#F0B80D" fill-opacity="0.16"/>
  <rect x="620" y="90" width="360" height="720" rx="48" fill="#040508"/>
  <rect x="650" y="150" width="300" height="600" rx="28" fill="#10182B"/>
  <rect x="680" y="200" width="240" height="240" rx="20" fill="#3258A4"/>
  <rect x="680" y="460" width="180" height="14" rx="7" fill="#ffffff" fill-opacity="0.8"/>
  <rect x="680" y="490" width="140" height="10" rx="5" fill="#ffffff" fill-opacity="0.35"/>
  <rect x="680" y="540" width="240" height="56" rx="28" fill="#F0B80D"/>
  <circle cx="800" cy="568" r="16" fill="#3258A4"/>
  <rect x="180" y="260" width="300" height="380" rx="24" fill="#ffffff" stroke="#E8E4DE" stroke-width="2"/>
  <rect x="220" y="310" width="220" height="140" rx="16" fill="#F0B80D" fill-opacity="0.85"/>
  <rect x="220" y="470" width="180" height="12" rx="6" fill="#040508" fill-opacity="0.2"/>
  <rect x="1120" y="300" width="300" height="300" rx="24" fill="#3258A4" fill-opacity="0.92"/>
  <rect x="1160" y="360" width="220" height="16" rx="8" fill="#ffffff" fill-opacity="0.85"/>
</svg>
