<svg xmlns="http://www.w3.org/2000/svg" viewBox="0 0 1600 900" fill="none">
  <rect width="1600" height="900" fill="#0B1220"/>
  <rect width="1600" height="900" fill="url(#g)"/>
  <text x="120" y="150" fill="#ffffff" font-family="Arial, sans-serif" font-size="48" font-weight="700">Social content</text>
  <text x="120" y="210" fill="#F0B80D" font-family="Arial, sans-serif" font-size="28" font-weight="600">Built for consistency</text>
  <rect x="120" y="280" width="360" height="360" rx="28" fill="#3258A4"/>
  <rect x="160" y="330" width="280" height="20" rx="10" fill="#ffffff" fill-opacity="0.85"/>
  <rect x="160" y="370" width="220" height="14" rx="7" fill="#ffffff" fill-opacity="0.35"/>
  <circle cx="300" cy="520" r="56" fill="#F0B80D"/>
  <rect x="520" y="280" width="360" height="360" rx="28" fill="#141C2E" stroke="#F0B80D" stroke-opacity="0.5" stroke-width="2"/>
  <rect x="560" y="340" width="280" height="180" rx="20" fill="#3258A4" fill-opacity="0.55"/>
  <rect x="560" y="540" width="200" height="16" rx="8" fill="#ffffff" fill-opacity="0.3"/>
  <rect x="920" y="280" width="360" height="170" rx="28" fill="#F0B80D"/>
  <rect x="960" y="330" width="220" height="16" rx="8" fill="#040508" fill-opacity="0.65"/>
  <rect x="920" y="470" width="360" height="170" rx="28" fill="#3258A4"/>
  <rect x="920" y="660" width="360" height="170" rx="28" fill="#ffffff" fill-opacity="0.08"/>
  <rect x="120" y="680" width="760" height="120" rx="24" fill="#ffffff" fill-opacity="0.06" stroke="#3258A4" stroke-opacity="0.35"/>
  <defs>
    <linearGradient id="g" x1="800" y1="0" x2="800" y2="900" gradientUnits="userSpaceOnUse">
      <stop stop-color="#10182B"/>
      <stop offset="1" stop-color="#040508"/>
    </linearGradient>
  </defs>
</svg>
